<svg id="Layer_1" data-name="Layer 1" xmlns="http://www.w3.org/2000/svg" viewBox="0 0 18.63 15.86"><defs><style>.cls-1{fill:#ffcd4b;}</style></defs><title>Icon</title><rect class="cls-1" y="7.92" width="9.63" height="3.84"/><rect class="cls-1" x="3.84" y="4.9" width="5.79" height="3.72"/><line class="cls-1" x1="7.25" y1="5.04" x2="15.2"/><line class="cls-1" x1="18.24" y1="8.23" x2="15.2"/><path class="cls-1" d="M295.5,417.77l2.38,2.42Z" transform="translate(-288.25 -412.73)"/><ellipse class="cls-1" cx="2.46" cy="14.32" rx="1.6" ry="1.55"/><rect class="cls-1" x="2.2" y="12.77" width="7.84" height="3.09"/><ellipse class="cls-1" cx="10.04" cy="14.31" rx="1.6" ry="1.55"/><polygon class="cls-1" points="13.65 12.68 17.97 7.44 18.63 8.86 18.63 11.18 18.48 11.57 18.39 11.85 18.21 12.06 18.11 12.24 17.89 12.38 17.7 12.49 17.52 12.68 13.65 12.68"/><ellipse class="cls-1" cx="17.52" cy="11.31" rx="1.11" ry="1.37"/><path class="cls-1" d="M304.08,417.85l2.8,3.74-3.43-8.86-7.73,4.9a29,29,0,0,1,2.16,2.56c0,.21,4.54-4,4.54-4l2.87,5.12,1-.79-.26-.69" transform="translate(-288.25 -412.73)"/></svg>