<svg id="Layer_1" data-name="Layer 1" xmlns="http://www.w3.org/2000/svg" viewBox="0 0 209.35 40.91"><defs><style>.cls-1,.cls-10{fill:#c4c6c8;}.cls-2{font-size:19px;fill:#231f20;font-family:Montserrat-Bold, Montserrat;font-weight:700;letter-spacing:-0.01em;}.cls-3{letter-spacing:-0.02em;}.cls-4{letter-spacing:-0.02em;}.cls-5{letter-spacing:-0.01em;}.cls-6{letter-spacing:-0.03em;}.cls-7{letter-spacing:-0.01em;}.cls-8{letter-spacing:-0.01em;}.cls-9{letter-spacing:-0.02em;}.cls-10{font-size:12px;font-family:Montserrat-Regular, Montserrat;letter-spacing:0.05em;}.cls-11{letter-spacing:0.07em;}.cls-12{letter-spacing:0.07em;}.cls-13{letter-spacing:0.06em;}.cls-14{letter-spacing:0.05em;}.cls-15{letter-spacing:0.07em;}.cls-16{letter-spacing:0.05em;}.cls-17{letter-spacing:0.07em;}.cls-18{letter-spacing:0.06em;}.cls-19{letter-spacing:0.05em;}.cls-20{fill:#bec0c2;}.cls-21{fill:#ffcd4b;}</style></defs><title>new era logo</title><rect class="cls-1" x="24.3" width="185.05" height="25.23"/><text class="cls-2" transform="translate(27.62 19.05) scale(0.87 1)">N<tspan class="cls-3" x="15.07" y="0">e</tspan><tspan x="26.58" y="0">w E</tspan><tspan class="cls-4" x="61.65" y="0">r</tspan><tspan class="cls-5" x="69.43" y="0">a </tspan><tspan class="cls-6" x="85.96" y="0">C</tspan><tspan class="cls-5" x="99.24" y="0">ont</tspan><tspan class="cls-4" x="132.22" y="0">r</tspan><tspan class="cls-7" x="139.99" y="0">a</tspan><tspan class="cls-8" x="151.54" y="0">c</tspan><tspan class="cls-9" x="162.64" y="0">ti</tspan><tspan class="cls-7" x="176.05" y="0">n</tspan><tspan class="cls-9" x="189.01" y="0">g</tspan></text><text class="cls-10" transform="translate(27.62 37.77)">C<tspan class="cls-11" x="9.17" y="0">o</tspan><tspan class="cls-12" x="17.51" y="0">n</tspan><tspan class="cls-11" x="26.47" y="0">c</tspan><tspan class="cls-13" x="34.04" y="0">r</tspan><tspan class="cls-11" x="39.52" y="0">e</tspan><tspan class="cls-14" x="47.58" y="0">t</tspan><tspan class="cls-11" x="53.04" y="0">e a</tspan><tspan class="cls-12" x="72.96" y="0">n</tspan><tspan class="cls-15" x="81.92" y="0">d </tspan><tspan class="cls-16" x="94.83" y="0">E</tspan><tspan class="cls-14" x="103.5" y="0">x</tspan><tspan class="cls-17" x="110.5" y="0">c</tspan><tspan class="cls-18" x="118.07" y="0">a</tspan><tspan class="cls-19" x="125.84" y="0">v</tspan><tspan class="cls-17" x="132.97" y="0">ation</tspan></text><path class="cls-1" d="M94.7,153H69.4V127.8H94.7Zm-24.58-.71H94V128.51H70.12Z" transform="translate(-69.4 -127.8)"/><path class="cls-20" d="M94.7,127.8H69.4V153H94.7V127.8ZM70.12,152.33V128.51H94v23.82Z" transform="translate(-69.4 -127.8)"/><rect class="cls-21" x="2.84" y="11.85" width="9.63" height="3.84"/><rect class="cls-21" x="6.68" y="8.83" width="5.79" height="3.72"/><line class="cls-21" x1="10.09" y1="8.97" x2="18.04" y2="3.92"/><line class="cls-21" x1="21.08" y1="12.15" x2="18.04" y2="3.92"/><path class="cls-21" d="M79.5,136.77l2.38,2.42Z" transform="translate(-69.4 -127.8)"/><ellipse class="cls-21" cx="5.31" cy="18.24" rx="1.6" ry="1.55"/><rect class="cls-21" x="5.04" y="16.69" width="7.84" height="3.09"/><ellipse class="cls-21" cx="12.88" cy="18.23" rx="1.6" ry="1.55"/><polygon class="cls-21" points="16.5 16.6 20.81 11.37 21.47 12.79 21.47 15.1 21.32 15.5 21.23 15.77 21.05 15.99 20.95 16.16 20.74 16.3 20.54 16.42 20.36 16.6 16.5 16.6"/><ellipse class="cls-21" cx="20.36" cy="15.23" rx="1.11" ry="1.37"/><path class="cls-21" d="M88.08,136.85l2.8,3.74-3.43-8.86-7.73,4.9a29,29,0,0,1,2.16,2.56c0,.21,4.54-4,4.54-4l2.87,5.12,1-.79-.26-.69" transform="translate(-69.4 -127.8)"/></svg>